<svg width="22" height="22" viewBox="0 0 22 22" fill="none" xmlns="http://www.w3.org/2000/svg">
<path d="M18.3391 2.75H3.66094C3.1582 2.75 2.75 3.1582 2.75 3.66094V18.3391C2.75 18.8418 3.1582 19.25 3.66094 19.25H11V12.7188H9.02773V10.3125H11V8.53359C11 6.40234 12.4781 5.24219 14.3816 5.24219C15.2926 5.24219 16.2723 5.31094 16.5 5.34102V7.5668H14.9832C13.9477 7.5668 13.75 8.05664 13.75 8.77852V10.3125H16.2164L15.8941 12.7188H13.75V19.25H18.3391C18.8418 19.25 19.25 18.8418 19.25 18.3391V3.66094C19.25 3.1582 18.8418 2.75 18.3391 2.75Z" fill="black"/>
</svg>
