<svg width="23" height="22" viewBox="0 0 23 22" fill="none" xmlns="http://www.w3.org/2000/svg">
<path d="M15.0938 4.125C16.0461 4.125 16.949 4.48594 17.6318 5.13477C18.3146 5.78359 18.6875 6.65156 18.6875 7.5625V14.4375C18.6875 15.3484 18.3102 16.2121 17.6318 16.8652C16.9535 17.5184 16.0461 17.875 15.0938 17.875H7.90625C6.95391 17.875 6.05098 17.5141 5.36816 16.8652C4.68535 16.2164 4.3125 15.3484 4.3125 14.4375V7.5625C4.3125 6.65156 4.68984 5.78789 5.36816 5.13477C6.04648 4.48164 6.95391 4.125 7.90625 4.125H15.0938ZM15.0938 2.75H7.90625C5.13906 2.75 2.875 4.91563 2.875 7.5625V14.4375C2.875 17.0844 5.13906 19.25 7.90625 19.25H15.0938C17.8609 19.25 20.125 17.0844 20.125 14.4375V7.5625C20.125 4.91563 17.8609 2.75 15.0938 2.75Z" fill="black"/>
<path d="M16.1719 7.5625C15.5744 7.5625 15.0938 7.10273 15.0938 6.53125C15.0938 5.95977 15.5744 5.5 16.1719 5.5C16.7648 5.5 17.25 5.95977 17.25 6.53125C17.25 7.10273 16.7648 7.5625 16.1719 7.5625ZM11.5 8.25C13.0857 8.25 14.375 9.4832 14.375 11C14.375 12.5168 13.0857 13.75 11.5 13.75C9.91426 13.75 8.625 12.5168 8.625 11C8.625 9.4832 9.91426 8.25 11.5 8.25ZM11.5 6.875C9.11914 6.875 7.1875 8.72266 7.1875 11C7.1875 13.2773 9.11914 15.125 11.5 15.125C13.8809 15.125 15.8125 13.2773 15.8125 11C15.8125 8.72266 13.8809 6.875 11.5 6.875Z" fill="black"/>
</svg>
